<?xml version="1.0" encoding="utf-8"?>
<svg version="1.1" id="Layer_1" xmlns="http://www.w3.org/2000/svg" xmlns:xlink="http://www.w3.org/1999/xlink" x="0px" y="0px"
	 viewBox="0 0 256 256" style="enable-background:new 0 0 256 256;" xml:space="preserve">
<style type="text/css">
	.st0{fill:#3D9DD3;}
</style>
<g>
	<path class="st0" d="M77.0469,235.7529c-6.9443,0-13.415-3.7363-16.8872-9.75L9.2065,137.75c-3.4722-6.0146-3.4722-13.4863,0-19.5
		l50.9531-88.2534c3.4722-6.0142,9.9429-9.75,16.8872-9.75h101.9062c6.9443,0,13.415,3.7358,16.8877,9.75l50.9531,88.2534
		c3.4717,6.0137,3.4717,13.4854,0,19.5l-50.9531,88.2529c-3.4717,6.0137-9.9424,9.75-16.8877,9.75H77.0469z"/>
	<path class="st0" d="M178.953,20.7468c6.7664,0,13.0713,3.6402,16.4545,9.5l50.953,88.2532c3.3831,5.8598,3.3831,13.1402,0,19
		l-50.953,88.2532c-3.3831,5.8598-9.6881,9.5-16.4545,9.5H77.047c-6.7663,0-13.0713-3.6402-16.4545-9.5L9.6395,137.5
		c-3.3832-5.8598-3.3832-13.1402,0-19l50.953-88.2532c3.3832-5.8598,9.6881-9.5,16.4545-9.5H178.953 M178.953,19.7468H77.047
		c-7.1453,0-13.7478,3.812-17.3205,10L8.7735,118c-3.5727,6.188-3.5727,13.812,0,20l50.953,88.2532
		c3.5727,6.188,10.1752,10,17.3205,10h101.906c7.1453,0,13.7479-3.812,17.3205-10L247.2265,138c3.5726-6.188,3.5726-13.812,0-20
		l-50.953-88.2532C192.7009,23.5588,186.0983,19.7468,178.953,19.7468L178.953,19.7468z"/>
</g>
</svg>
