<?xml version="1.0" encoding="utf-8"?>
<svg version="1.1" id="Layer_1" xmlns="http://www.w3.org/2000/svg" xmlns:xlink="http://www.w3.org/1999/xlink" x="0px" y="0px"
	 viewBox="0 0 256 256" style="enable-background:new 0 0 256 256;" xml:space="preserve">
<style type="text/css">
	.st0{fill:#3D9DD3;}
</style>
<g>
	<path class="st0" d="M128,249.4062c-3.4185,0-6.7896-0.9033-9.75-2.6123l-88.2534-50.9531c-6.0142-3.4727-9.75-9.9434-9.75-16.8877
		V77.0469c0-6.9443,3.7358-13.415,9.75-16.8872L118.25,9.2065c2.9604-1.7095,6.3315-2.6128,9.75-2.6128
		c3.418,0,6.7891,0.9033,9.75,2.6128l88.2529,50.9531c6.0137,3.4722,9.75,9.9429,9.75,16.8872v101.9062
		c0,6.9453-3.7363,13.416-9.75,16.8877L137.75,246.7939C134.7891,248.5029,131.418,249.4062,128,249.4062z"/>
	<path class="st0" d="M128,7.094c3.3306,0,6.6156,0.8802,9.5,2.5455l88.2532,50.953c5.8598,3.3832,9.5,9.6881,9.5,16.4545v101.906
		c0,6.7664-3.6402,13.0713-9.5,16.4545L137.5,246.3605c-2.8844,1.6653-6.1694,2.5455-9.5,2.5455c-3.3305,0-6.6156-0.8802-9.5-2.5455
		l-88.2532-50.953c-5.8598-3.3831-9.5-9.6881-9.5-16.4545V77.047c0-6.7663,3.6402-13.0713,9.5-16.4545L118.5,9.6395
		C121.3844,7.9742,124.6694,7.094,128,7.094 M128,6.094c-3.453,0-6.906,0.8932-10,2.6795l-88.2532,50.953
		c-6.188,3.5727-10,10.1752-10,17.3205v101.906c0,7.1453,3.812,13.7479,10,17.3205L118,247.2265
		c3.094,1.7863,6.547,2.6795,10,2.6795c3.453,0,6.906-0.8932,10-2.6795l88.2532-50.953c6.188-3.5726,10-10.1752,10-17.3205V77.047
		c0-7.1453-3.812-13.7478-10-17.3205L138,8.7735C134.906,6.9872,131.453,6.094,128,6.094L128,6.094z"/>
</g>
</svg>
