<?xml version="1.0" encoding="utf-8"?>
<svg version="1.1" id="Layer_1" xmlns="http://www.w3.org/2000/svg" xmlns:xlink="http://www.w3.org/1999/xlink" x="0px" y="0px"
	 viewBox="0 0 256 256" style="enable-background:new 0 0 256 256;" xml:space="preserve">
<style type="text/css">
	.st0{fill:#3D9DD3;}
	.st1{opacity:1.0;fill:#EE3E33;}
	.st2{opacity:1.0;fill:#008A4A;}
</style>
<g>
	<path class="st0" d="M77.0469,235.7529c-6.9443,0-13.415-3.7363-16.8872-9.75L9.2065,137.75c-3.4722-6.0146-3.4722-13.4863,0-19.5
		l50.9531-88.2534c3.4722-6.0142,9.9429-9.75,16.8872-9.75h101.9062c6.9443,0,13.415,3.7358,16.8877,9.75l50.9531,88.2534
		c3.4717,6.0137,3.4717,13.4854,0,19.5l-50.9531,88.2529c-3.4717,6.0137-9.9424,9.75-16.8877,9.75H77.0469z"/>
	<path class="st0" d="M178.953,20.7468c6.7664,0,13.0713,3.6402,16.4545,9.5l50.953,88.2532c3.3831,5.8598,3.3831,13.1402,0,19
		l-50.953,88.2532c-3.3831,5.8598-9.6881,9.5-16.4545,9.5H77.047c-6.7663,0-13.0713-3.6402-16.4545-9.5L9.6395,137.5
		c-3.3832-5.8598-3.3832-13.1402,0-19l50.953-88.2532c3.3832-5.8598,9.6881-9.5,16.4545-9.5H178.953 M178.953,19.7468H77.047
		c-7.1453,0-13.7478,3.812-17.3205,10L8.7735,118c-3.5727,6.188-3.5727,13.812,0,20l50.953,88.2532
		c3.5727,6.188,10.1752,10,17.3205,10h101.906c7.1453,0,13.7479-3.812,17.3205-10L247.2265,138c3.5726-6.188,3.5726-13.812,0-20
		l-50.953-88.2532C192.7009,23.5588,186.0983,19.7468,178.953,19.7468L178.953,19.7468z"/>
</g>
<path class="st1" d="M104.2378,51.0619c-8.97,0-16.41,6.15-18.54,14.46c-0.24,0-0.42-0.06-0.66-0.06c-10.59,0-19.2,8.61-19.2,19.2
	c0,1.44,0.18,2.85,0.51,4.2c-8.76,3.6-14.91,12.18-14.91,22.2c0,3.78,0.96,7.29,2.49,10.47c-7.2,4.14-12.09,11.82-12.09,20.73
	c0,9.99,6.12,18.57,14.82,22.17c-0.27,1.38-0.42,2.79-0.42,4.23c0,11.94,9.66,21.6,21.6,21.6c1.23,0,2.43-0.15,3.6-0.36
	c2.88,8.55,10.86,14.76,20.4,14.76c11.94,0,21.6-9.66,21.6-21.6v-112.8C123.4378,59.6719,114.8278,51.0619,104.2378,51.0619z"/>
<path class="st2" d="M217.6,142.2619c0-8.91-4.89-16.59-12.09-20.73c1.56-3.18,2.49-6.69,2.49-10.47c0-10.02-6.15-18.6-14.91-22.2
	c0.3-1.35,0.51-2.76,0.51-4.2c0-10.59-8.61-19.2-19.2-19.2c-0.24,0-0.45,0.06-0.66,0.06c-2.13-8.31-9.57-14.46-18.54-14.46
	c-10.59,0-19.2,8.58-19.2,19.2v112.8c0,11.94,9.66,21.6,21.6,21.6c9.54,0,17.52-6.21,20.4-14.76c1.17,0.21,2.37,0.36,3.6,0.36
	c11.94,0,21.6-9.66,21.6-21.6c0-1.44-0.15-2.85-0.42-4.23C211.48,160.8319,217.6,152.2519,217.6,142.2619z"/>
</svg>
